<?xml version="1.0" encoding="iso-8859-1"?>
<!-- Generator: Adobe Illustrator 19.0.0, SVG Export Plug-In . SVG Version: 6.00 Build 0)  -->
<svg version="1.1" id="Layer_1" xmlns="http://www.w3.org/2000/svg" xmlns:xlink="http://www.w3.org/1999/xlink" x="0px" y="0px"
	 viewBox="0 0 392.533 392.533" style="enable-background:new 0 0 392.533 392.533;" xml:space="preserve">
<g>
	<g>
		<path d="M100.202,165.947c-27.281,0-49.455,22.174-49.455,49.455s22.174,49.455,49.455,49.455s49.455-22.174,49.455-49.455
			S127.483,165.947,100.202,165.947z M100.202,243.071c-15.257,0-27.604-12.347-27.604-27.604s12.412-27.604,27.604-27.604
			c15.192,0,27.604,12.347,27.604,27.604S115.459,243.071,100.202,243.071z"/>
	</g>
</g>
<g>
	<g>
		<path d="M200.339,379.992c-0.84-54.432-45.446-98.521-100.137-98.521c-55.273,0-100.137,44.865-100.137,100.137
			c0,6.012,4.849,10.925,10.925,10.925h178.489h0.065C201.374,392.533,200.469,380.574,200.339,379.992z M22.626,370.747
			c5.301-38.077,38.077-67.491,77.576-67.491c39.499,0,72.275,29.35,77.576,67.491H22.626z"/>
	</g>
</g>
<g>
	<g>
		<path d="M278.626,0C215.79,0,164.655,51.135,164.655,113.972c0,25.341,8.469,49.972,24.113,70.012l-13.123,67.943
			c-0.84,4.396,1.099,8.857,4.849,11.313c3.426,2.133,9.503,1.681,12.283-0.453l53.527-39.564
			c10.602,3.168,21.398,4.719,32.194,4.719c62.836,0,113.972-51.135,113.972-113.972S341.463,0,278.626,0z M278.626,206.093
			c-10.279,0-20.558-1.745-30.513-5.301c-3.426-1.228-7.176-0.646-10.149,1.552l-35.62,26.246l8.792-45.511
			c0.646-3.232-0.259-6.659-2.392-9.18c-14.352-16.679-22.238-38.012-22.238-59.992c0-50.877,41.309-92.186,92.186-92.186
			c50.877,0,92.186,41.309,92.186,92.186C370.877,164.784,329.503,206.093,278.626,206.093z"/>
	</g>
</g>
<g>
	<g>
		<path d="M279.273,39.693c-0.259,0-0.388,0-0.646,0c-11.507,0-22.432,4.461-30.578,12.606
			c-8.339,8.275-12.994,19.329-12.994,31.095c0,6.012,4.849,10.925,10.925,10.925c6.077,0,10.925-4.848,10.925-10.925
			c0-5.883,2.327-11.442,6.465-15.515c4.137-4.073,9.762-6.4,15.58-6.271c11.507,0.129,21.333,9.956,21.463,21.463
			c0.065,7.758-3.685,14.739-10.279,18.877c-14.093,8.727-22.432,23.337-22.432,39.047c0,6.012,4.849,10.925,10.925,10.925
			c6.012,0,10.925-4.849,10.925-10.925c0-8.146,4.59-15.774,12.154-20.493c13.123-8.21,20.816-22.238,20.558-37.624
			C321.875,59.345,302.675,40.081,279.273,39.693z"/>
	</g>
</g>
<g>
	<g>
		<path d="M278.626,162.198c-6.012,0-10.925,4.848-10.925,10.925v4.202c0,6.012,4.849,10.925,10.925,10.925
			c6.012,0,10.925-4.849,10.925-10.925v-4.202C289.552,167.046,284.638,162.198,278.626,162.198z"/>
	</g>
</g>
<g>
</g>
<g>
</g>
<g>
</g>
<g>
</g>
<g>
</g>
<g>
</g>
<g>
</g>
<g>
</g>
<g>
</g>
<g>
</g>
<g>
</g>
<g>
</g>
<g>
</g>
<g>
</g>
<g>
</g>
</svg>
